<svg width="16" height="16" viewBox="0 0 16 16" fill="none" xmlns="http://www.w3.org/2000/svg">
<path d="M2 1.75C2 .784 2.784 0 3.75 0h8.5C13.216 0 14 .784 14 1.75v2a.75.75 0 0 1-1.5 0v-2a.25.25 0 0 0-.25-.25h-8.5a.25.25 0 0 0-.25.25v12.5c0 .138.112.25.25.25h8.5a.25.25 0 0 0 .25-.25v-2a.75.75 0 0 1 1.5 0v2A1.75 1.75 0 0 1 12.25 16h-8.5A1.75 1.75 0 0 1 2 14.25V1.75ZM5 6.5a1.5 1.5 0 1 1 0-3 1.5 1.5 0 0 1 0 3ZM11 6.5a1.5 1.5 0 1 1 0-3 1.5 1.5 0 0 1 0 3ZM5 8a.75.75 0 0 1 .75.75v2.5a.75.75 0 0 1-1.5 0v-2.5A.75.75 0 0 1 5 8Zm6 0a.75.75 0 0 1 .75.75v2.5a.75.75 0 0 1-1.5 0v-2.5A.75.75 0 0 1 11 8ZM3 12.25a.75.75 0 0 1 .75-.75h8.5a.75.75 0 0 1 0 1.5h-8.5a.75.75 0 0 1-.75-.75Z" fill="#24292f"/>
</svg>
