<?xml version="1.0" encoding="utf-8"?><!-- Uploaded to: SVG Repo, www.svgrepo.com, Generator: SVG Repo Mixer Tools -->
<svg width="16" height="16" viewBox="0 0 24 24" fill="none" xmlns="http://www.w3.org/2000/svg">
<path fill-rule="evenodd" clip-rule="evenodd" d="M2,6.68c-2.14-1.09-1.9-2.3,0.26-2.18l0.48,0.9l0.99-3.09C3.96,1.1,4.76,0,5.95,0H18.73c1.27,0,2.01,1.08,2.32,2.32l0.74,3l0.43-0.81c2.21-0.13,2.41,1.16,0.07,2.27l0.38,0.58c1.54,1.58,1.39,4.38,1.15,8.29v1.59c0,0.4-0.33,0.72-0.72,0.72h-3.09c-0.4,0-0.72-0.33-0.72-0.72v-0.89H4.69v0.89c0,0.4-0.33,0.72-0.72,0.72H0.88c-0.4,0-0.72-0.33-0.72-0.72v-1.91c0-0.04,0-0.08,0.01-0.11C-0.07,12.15-0.4,8.23,2,6.68L2,6.68z M5.93,11.46l-2.74-0.35c-0.65-0.07-0.82,0.2-0.6,0.76l0.3,0.72c0.1,0.19,0.22,0.32,0.37,0.41c0.17,0.11,0.38,0.16,0.61,0.17l2.45,0.02c0.59,0,0.85-0.24,0.66-0.78C6.83,11.91,6.46,11.56,5.93,11.46L5.93,11.46z M10.61,10.32h2.81c0.17,0,0.3,0.14,0.3,0.3l0,0c0,0.17-0.14,0.3-0.3,0.3h-2.81c-0.17,0-0.3-0.14-0.3-0.3l0,0C10.31,10.46,10.45,10.32,10.61,10.32L10.61,10.32z M17.56,14.28h2.81c0.17,0,0.3,0.14,0.3,0.3l0,0c0,0.17-0.14,0.3-0.3,0.3h-2.81c-0.17,0-0.3-0.14-0.3-0.3l0,0C17.26,14.41,17.4,14.28,17.56,14.28L17.56,14.28z M18.07,11.46l2.74-0.35c0.65-0.07,0.82,0.2,0.6,0.76l-0.3,0.72c-0.1,0.19-0.22,0.32-0.37,0.41c-0.17,0.11-0.38,0.16-0.61,0.17l-2.45,0.02c-0.59,0-0.85-0.24-0.66-0.78C17.17,11.91,17.54,11.56,18.07,11.46L18.07,11.46z M3.59,14.28h2.81c0.17,0,0.3,0.14,0.3,0.3l0,0c0,0.17-0.14,0.3-0.3,0.3H3.59c-0.17,0-0.3-0.14-0.3-0.3l0,0C3.29,14.41,3.43,14.28,3.59,14.28L3.59,14.28z M3.75,6.09h16.94l-0.75-3.11c-0.2-0.95-0.79-1.77-1.77-1.77H6.44c-0.97,0-1.47,0.84-1.77,1.77L3.75,6.09v0.15V6.09L3.75,6.09z" fill="#ffffff"/>
</svg>