<svg width="16" height="16" viewBox="0 0 16 16" fill="none" xmlns="http://www.w3.org/2000/svg">
  <!-- Main chip body -->
  <rect x="4" y="4" width="8" height="8" fill="#6b7280" stroke="#6b7280" stroke-width="0.5"/>
  
  <!-- Chip label area -->
  <rect x="5" y="5" width="6" height="6" fill="none" stroke="#ffffff" stroke-width="0.3"/>
  
  <!-- Pin indicator dot -->
  <circle cx="5.5" cy="5.5" r="0.4" fill="#ffffff"/>
  
  <!-- Left pins -->
  <rect x="2" y="5" width="2" height="0.5" fill="#6b7280"/>
  <rect x="2" y="6.5" width="2" height="0.5" fill="#6b7280"/>
  <rect x="2" y="8" width="2" height="0.5" fill="#6b7280"/>
  <rect x="2" y="9.5" width="2" height="0.5" fill="#6b7280"/>
  
  <!-- Right pins -->
  <rect x="12" y="5" width="2" height="0.5" fill="#6b7280"/>
  <rect x="12" y="6.5" width="2" height="0.5" fill="#6b7280"/>
  <rect x="12" y="8" width="2" height="0.5" fill="#6b7280"/>
  <rect x="12" y="9.5" width="2" height="0.5" fill="#6b7280"/>
  
  <!-- Top pins -->
  <rect x="5" y="2" width="0.5" height="2" fill="#6b7280"/>
  <rect x="6.5" y="2" width="0.5" height="2" fill="#6b7280"/>
  <rect x="8" y="2" width="0.5" height="2" fill="#6b7280"/>
  <rect x="9.5" y="2" width="0.5" height="2" fill="#6b7280"/>
  
  <!-- Bottom pins -->
  <rect x="5" y="12" width="0.5" height="2" fill="#6b7280"/>
  <rect x="6.5" y="12" width="0.5" height="2" fill="#6b7280"/>
  <rect x="8" y="12" width="0.5" height="2" fill="#6b7280"/>
  <rect x="9.5" y="12" width="0.5" height="2" fill="#6b7280"/>
</svg>