<svg width="16" height="16" viewBox="0 0 16 16" fill="none" xmlns="http://www.w3.org/2000/svg">
<path d="M2.75 0h10.5A2.75 2.75 0 0 1 16 2.75v10.5A2.75 2.75 0 0 1 13.25 16H2.75A2.75 2.75 0 0 1 0 13.25V2.75A2.75 2.75 0 0 1 2.75 0ZM2.75 1.5a1.25 1.25 0 0 0-1.25 1.25v10.5c0 .69.56 1.25 1.25 1.25h10.5c.69 0 1.25-.56 1.25-1.25V2.75c0-.69-.56-1.25-1.25-1.25H2.75ZM8 3.75a.75.75 0 0 1 .75.75v2.5a.75.75 0 0 1-1.5 0V4.81L5.53 6.53a.75.75 0 0 1-1.06-1.06L6.19 3.75H4.5a.75.75 0 0 1 0-1.5h3a.75.75 0 0 1 .75.75ZM3 9.75a.75.75 0 0 1 .75-.75h8.5a.75.75 0 0 1 0 1.5h-8.5A.75.75 0 0 1 3 9.75Zm0 2.5a.75.75 0 0 1 .75-.75h8.5a.75.75 0 0 1 0 1.5h-8.5a.75.75 0 0 1-.75-.75Z" fill="#24292f"/>
</svg>
