<?xml version="1.0" encoding="utf-8"?><!-- Uploaded to: SVG Repo, www.svgrepo.com, Generator: SVG Repo Mixer Tools -->
<svg width="16" height="16" viewBox="0 0 24 24" fill="none" xmlns="http://www.w3.org/2000/svg">
<path d="M7.04,4.7l0.2-0.2c0,0,0.31-0.26,0.65-0.14c0.61,0.21,1.31-0.02,1.79-0.5c0.14-0.14,0.31-0.42,0.31-0.42c0.02-0.03,0.03-0.06,0.02-0.09l-0.04-0.15c-0.01-0.03-0.03-0.05-0.05-0.07c-0.03-0.01-0.06-0.02-0.08-0.01l-1.19,0.33c-0.04,0.01-0.09-0.004-0.12-0.04l-0.55-0.75c-0.02-0.02-0.02-0.05-0.02-0.08l0.11-0.8c0.01-0.04,0.04-0.08,0.08-0.09l1.26-0.35c0.06-0.02,0.09-0.07,0.08-0.13l-0.05-0.2c-0.01-0.03-0.03-0.05-0.05-0.07c0,0-0.1-0.07-0.17-0.10c-0.72-0.37-1.61-0.25-2.21,0.34c-0.44,0.44-0.62,1.05-0.53,1.62c0.06,0.44,0.03,0.68-0.16,0.88c-0.02,0.02-0.07,0.07-0.16,0.16L7.04,4.7z"/>
<path d="M4.13,5.77C2.79,7.07,1.34,8.47,1.34,8.47c-0.05,0.05-0.08,0.11-0.08,0.18c-0.001,0.07,0.03,0.13,0.07,0.18l0.62,0.62c0.05,0.05,0.11,0.08,0.18,0.07c0.07-0.001,0.13-0.03,0.18-0.08l2.72-2.75L4.13,5.77z"/>
<path d="M9.79,8.81c0.05-0.05,0.08-0.11,0.07-0.18c-0.001-0.07-0.03-0.13-0.08-0.18L4.44,3.25l-0.86,0.86l5.36,5.36c0.05,0.05,0.11,0.08,0.18,0.08s0.13-0.03,0.18-0.07L9.79,8.81z"/>
<path d="M4.97,0.64c-0.64-0.25-1.68-0.29-2.29,0.32c-0.47,0.47-1.17,1.17-1.17,1.17c-0.25,0.25-0.02,0.49-0.2,0.67C1.13,2.98,0.84,2.56,0.64,2.76L0.06,3.56c-0.09,0.09-0.09,0.22,0,0.31l0.84,0.84c0.09,0.09,0.22,0.09,0.31,0l0.60-0.60c0.16-0.16-0.02-0.46,0.16-0.64c0.25-0.25,0.51-0.20,0.67-0.05l0.31,0.31l0.34,0.09l0.86-0.86l-0.10-0.33c-0.27-0.27-0.31-0.59-0.14-0.76c0.27-0.27,0.70-0.65,1.11-0.81C5.29,0.96,5.22,0.72,4.97,0.64z M3.80,2.02c-0.01,0.01,0.11-0.14,0.12-0.14L3.80,2.02z"/>
</svg>