<?xml version="1.0" encoding="utf-8"?><!-- Uploaded to: SVG Repo, www.svgrepo.com, Generator: SVG Repo Mixer Tools -->
<svg width="16" height="16" viewBox="0 0 24 24" fill="none" xmlns="http://www.w3.org/2000/svg">
<path d="M3.02172 1.79241C3.11977 1.33042 3.52766 1 3.99994 1H7.49994C10.8167 1 13.9504 2.15662 16.5142 4.05499L16.8139 3.77241C17.2074 3.40139 17.8246 3.41046 18.207 3.79289L20.207 5.79289C20.5895 6.17532 20.5986 6.79251 20.2275 7.18601L19.945 7.48571C21.8433 10.0496 22.9999 13.1833 22.9999 16.5V20C22.9999 20.4723 22.6695 20.8802 22.2075 20.9782C21.7455 21.0763 21.2779 20.8377 21.0861 20.4061C19.5548 16.9607 17.8884 14.1436 15.9191 11.7594L5.78873 22.5551C4.82264 23.5847 3.19624 23.6105 2.19791 22.6122L1.38775 21.802C0.389428 20.8037 0.415275 19.1773 1.44482 18.2112L12.2405 8.08084C9.85633 6.11151 7.03927 4.44513 3.5938 2.91381C3.16223 2.722 2.92368 2.2544 3.02172 1.79241Z" stroke="#ffffff" stroke-width="1.5" stroke-linecap="round" stroke-linejoin="round"/>
</svg>